<svg width="14" height="14" viewBox="0 0 14 14" fill="none" xmlns="http://www.w3.org/2000/svg">
  <path
    d="M2.25 14H9.25C9.84674 14 10.419 13.7629 10.841 13.341C11.2629 12.919 11.5 12.3467 11.5 11.75V4.75C11.5 4.15326 11.2629 3.58097 10.841 3.15901C10.419 2.73705 9.84674 2.5 9.25 2.5H2.25C1.65326 2.5 1.08097 2.73705 0.65901 3.15901C0.237053 3.58097 0 4.15326 0 4.75V11.75C0 12.3467 0.237053 12.919 0.65901 13.341C1.08097 13.7629 1.65326 14 2.25 14Z"
    fill="#414A60" />
  <path
    d="M10 1.5H2.62875C2.78431 1.06164 3.0717 0.682148 3.45149 0.413589C3.83128 0.145031 4.28485 0.000561565 4.75 0H11.75C12.3467 0 12.919 0.237053 13.341 0.65901C13.7629 1.08097 14 1.65326 14 2.25V9.25C13.9994 9.71515 13.855 10.1687 13.5864 10.5485C13.3179 10.9283 12.9384 11.2157 12.5 11.3713V4C12.5 3.33696 12.2366 2.70107 11.7678 2.23223C11.2989 1.76339 10.663 1.5 10 1.5Z"
    fill="#414A60" />
</svg>
