<svg width="28" height="28" viewBox="0 0 28 28" fill="none" xmlns="http://www.w3.org/2000/svg">
<path d="M25.0633 27.5044L15.6133 18.0544C14.8633 18.6544 14.0008 19.1294 13.0258 19.4794C12.0508 19.8294 11.0133 20.0044 9.91333 20.0044C7.18833 20.0044 4.88233 19.0604 2.99533 17.1724C1.10833 15.2844 0.164331 12.9784 0.163331 10.2544C0.162331 7.53039 1.10633 5.22439 2.99533 3.33639C4.88433 1.44839 7.19033 0.504395 9.91333 0.504395C12.6363 0.504395 14.9428 1.44839 16.8328 3.33639C18.7228 5.22439 19.6663 7.53039 19.6633 10.2544C19.6633 11.3544 19.4883 12.3919 19.1383 13.3669C18.7883 14.3419 18.3133 15.2044 17.7133 15.9544L27.1633 25.4044L25.0633 27.5044ZM9.91333 17.0044C11.7883 17.0044 13.3823 16.3484 14.6953 15.0364C16.0083 13.7244 16.6643 12.1304 16.6633 10.2544C16.6623 8.37839 16.0063 6.78489 14.6953 5.4739C13.3843 4.16289 11.7903 3.50639 9.91333 3.50439C8.03633 3.50239 6.44283 4.15889 5.13283 5.4739C3.82283 6.78889 3.16633 8.38239 3.16333 10.2544C3.16033 12.1264 3.81683 13.7204 5.13283 15.0364C6.44883 16.3524 8.04233 17.0084 9.91333 17.0044Z" fill="#414A60"/>
</svg>
