<svg width="15" height="20" viewBox="0 0 15 20" fill="none" xmlns="http://www.w3.org/2000/svg">
  <path
    d="M9.50085 16.0007C9.76607 16.0007 10.0204 15.8954 10.208 15.7079C10.3955 15.5203 10.5009 15.266 10.5009 15.0007L10.5009 3.41075L12.7909 5.71075C12.9792 5.89905 13.2346 6.00484 13.5009 6.00484C13.7672 6.00484 14.0225 5.89905 14.2109 5.71075C14.3992 5.52245 14.5049 5.26705 14.5049 5.00075C14.5049 4.73445 14.3992 4.47905 14.2109 4.29075L10.2109 0.29075C10.0702 0.151992 9.89165 0.0579958 9.69767 0.0206216C9.50368 -0.0167525 9.30296 0.00417015 9.12085 0.0807496C8.93823 0.15577 8.78191 0.283168 8.67157 0.446888C8.56124 0.610608 8.50184 0.803324 8.50085 1.00075L8.50085 15.0007C8.50085 15.266 8.60621 15.5203 8.79374 15.7079C8.98128 15.8954 9.23564 16.0007 9.50085 16.0007ZM5.88085 19.9207C6.06347 19.8457 6.2198 19.7183 6.33013 19.5546C6.44046 19.3909 6.49987 19.1982 6.50085 19.0007L6.50085 5.00075C6.50085 4.73553 6.39549 4.48118 6.20796 4.29364C6.02042 4.10611 5.76607 4.00075 5.50085 4.00075C5.23564 4.00075 4.98128 4.10611 4.79374 4.29364C4.60621 4.48118 4.50085 4.73553 4.50085 5.00075L4.50085 16.5907L2.21085 14.2907C2.11789 14.197 2.00729 14.1226 1.88543 14.0719C1.76357 14.0211 1.63286 13.995 1.50085 13.995C1.36884 13.995 1.23813 14.0211 1.11628 14.0719C0.994416 14.1226 0.883816 14.197 0.790853 14.2907C0.697125 14.3837 0.622729 14.4943 0.57196 14.6162C0.521191 14.738 0.495054 14.8687 0.495054 15.0007C0.495054 15.1328 0.521191 15.2635 0.57196 15.3853C0.622729 15.5072 0.697125 15.6178 0.790853 15.7107L4.79085 19.7107C4.93147 19.8495 5.11005 19.9435 5.30404 19.9809C5.49803 20.0183 5.69874 19.9973 5.88085 19.9207Z"
    fill="#414A60" />
</svg>
