<svg width="21" height="14" viewBox="0 0 21 14" fill="none" xmlns="http://www.w3.org/2000/svg">
  <path
    d="M18.9962 0.366989C18.6729 0.366989 18.3628 0.496223 18.1341 0.72626C17.9055 0.956297 17.7771 1.26829 17.7771 1.59362V6.50012C17.7771 6.82544 17.6486 7.13744 17.42 7.36748C17.1914 7.59751 16.8813 7.72675 16.5579 7.72675H4.86649L6.45135 6.1444C6.68092 5.91342 6.80989 5.60015 6.80989 5.27349C6.80989 4.94684 6.68092 4.63357 6.45135 4.40259C6.22179 4.17161 5.91043 4.04185 5.58577 4.04185C5.26112 4.04185 4.94976 4.17161 4.72019 4.40259L1.0628 8.08247C0.95181 8.19912 0.864807 8.33668 0.806783 8.48725C0.684848 8.78589 0.684848 9.12085 0.806783 9.41949C0.864807 9.57006 0.95181 9.70762 1.0628 9.82428L4.72019 13.5042C4.83352 13.6191 4.96836 13.7104 5.11692 13.7727C5.26549 13.8349 5.42483 13.867 5.58577 13.867C5.74671 13.867 5.90606 13.8349 6.05462 13.7727C6.20318 13.7104 6.33802 13.6191 6.45135 13.5042C6.56562 13.3901 6.65632 13.2545 6.71821 13.105C6.78011 12.9555 6.81197 12.7952 6.81197 12.6333C6.81197 12.4713 6.78011 12.311 6.71821 12.1615C6.65632 12.012 6.56562 11.8764 6.45135 11.7623L4.86649 10.18H16.5579C17.5279 10.18 18.4582 9.7923 19.1441 9.10219C19.83 8.41208 20.2153 7.47608 20.2153 6.50012V1.59362C20.2153 1.26829 20.0869 0.956297 19.8583 0.72626C19.6296 0.496223 19.3195 0.366989 18.9962 0.366989Z"
    fill="#414A60" />
</svg>
