<svg width="20" height="15" viewBox="0 0 20 15" fill="none" xmlns="http://www.w3.org/2000/svg">
<path d="M18.3329 0.626709C18.0095 0.626709 17.6994 0.755943 17.4708 0.98598C17.2422 1.21602 17.1137 1.52801 17.1137 1.85334V6.75984C17.1137 7.08516 16.9853 7.39716 16.7567 7.6272C16.528 7.85723 16.2179 7.98647 15.8946 7.98647H4.20316L5.78802 6.40412C6.01759 6.17314 6.14656 5.85987 6.14656 5.53321C6.14656 5.20656 6.01759 4.89329 5.78802 4.66231C5.55846 4.43133 5.2471 4.30157 4.92244 4.30157C4.59779 4.30157 4.28643 4.43133 4.05686 4.66231L0.399471 8.34219C0.28848 8.45884 0.201477 8.5964 0.143453 8.74697C0.0215182 9.04561 0.0215182 9.38057 0.143453 9.67921C0.201477 9.82978 0.28848 9.96734 0.399471 10.084L4.05686 13.7639C4.17019 13.8788 4.30503 13.9701 4.45359 14.0324C4.60216 14.0946 4.7615 14.1267 4.92244 14.1267C5.08338 14.1267 5.24273 14.0946 5.39129 14.0324C5.53985 13.9701 5.67469 13.8788 5.78802 13.7639C5.90229 13.6498 5.99299 13.5142 6.05488 13.3647C6.11678 13.2152 6.14864 13.0549 6.14864 12.893C6.14864 12.731 6.11678 12.5707 6.05488 12.4212C5.99299 12.2718 5.90229 12.1361 5.78802 12.0221L4.20316 10.4397H15.8946C16.8646 10.4397 17.7949 10.052 18.4808 9.36191C19.1667 8.6718 19.552 7.7358 19.552 6.75984V1.85334C19.552 1.52801 19.4236 1.21602 19.1949 0.98598C18.9663 0.755943 18.6562 0.626709 18.3329 0.626709Z" fill="#414A60"/>
</svg>
