<svg width="16" height="16" viewBox="0 0 16 16" fill="none" xmlns="http://www.w3.org/2000/svg">
<path d="M0.467136 8.47371H1.80256C2.03285 11.5263 4.48028 13.9803 7.52628 14.2106V15.5263C7.52628 15.7894 7.73028 16 7.99342 16C8.26314 16 8.46714 15.7894 8.46714 15.5263V14.2106C11.5131 13.9803 13.9606 11.5263 14.1908 8.47343H15.5263C15.5885 8.47373 15.6503 8.46169 15.7079 8.43801C15.7654 8.41433 15.8178 8.37948 15.8618 8.33546C15.9059 8.29144 15.9408 8.23913 15.9645 8.18155C15.9882 8.12398 16.0003 8.06227 16 8C16 7.73686 15.7894 7.53286 15.5263 7.53286H14.1908C13.9606 4.48029 11.5131 2.02629 8.46714 1.796V0.473714C8.46714 0.210571 8.26285 0 7.99342 0C7.73028 0 7.52628 0.210571 7.52628 0.473714V1.796C4.48028 2.02629 2.03285 4.48029 1.80256 7.53314H0.467136C0.203993 7.53286 0.0285645 7.73657 0.0285645 8C0.0285645 8.26343 0.203993 8.47371 0.467136 8.47371ZM7.99342 5.40143C8.26314 5.40143 8.46714 5.19086 8.46714 4.92771V2.86857C10.9408 3.092 12.8617 5.03286 13.0791 7.53286H11.0723C10.8094 7.53286 10.5986 7.73686 10.5986 8C10.5986 8.26314 10.8091 8.47371 11.0723 8.47371H13.0791C12.862 10.9671 10.9408 12.908 8.46714 13.1317V11.0723C8.46714 10.8094 8.26314 10.6051 7.99342 10.6051C7.73028 10.6051 7.52628 10.8091 7.52628 11.0723V13.1317C5.05256 12.908 3.13171 10.9671 2.91456 8.47371H4.92114C5.18399 8.47371 5.39485 8.26314 5.39485 8C5.39485 7.73686 5.18428 7.53286 4.92114 7.53286H2.91428C3.13142 5.03286 5.05228 3.092 7.52599 2.86857V4.92771C7.52599 5.19057 7.73028 5.40143 7.99342 5.40143Z" fill="#FFCF39"/>
</svg>
