<svg width="25" height="25" viewBox="0 0 25 25" fill="none" xmlns="http://www.w3.org/2000/svg">
<path d="M0.5 12.3931C0.5 5.76565 5.87258 0.393066 12.5 0.393066C19.1274 0.393066 24.5 5.76565 24.5 12.3931C24.5 19.0205 19.1274 24.3931 12.5 24.3931C5.87258 24.3931 0.5 19.0205 0.5 12.3931Z" fill="#39E44D" fill-opacity="0.45"/>
<path d="M4.71386 11.9615C4.71386 11.6204 4.83713 11.3194 5.08367 11.0585L5.8333 10.306C6.08651 10.0518 6.38969 9.92474 6.74284 9.92474C7.10266 9.92474 7.40251 10.0518 7.64239 10.306L10.5809 13.2458L10.5809 6.18227C10.5809 5.83444 10.7059 5.55184 10.9557 5.33444C11.2056 5.11705 11.5071 5.00836 11.8603 5.00836L13.1396 5.00836C13.4928 5.00836 13.7943 5.11705 14.0442 5.33444C14.2941 5.55184 14.419 5.83444 14.419 6.18227L14.419 13.2458L17.3575 10.306C17.5974 10.0518 17.8973 9.92475 18.2571 9.92475C18.6169 9.92475 18.9168 10.0518 19.1566 10.306L19.9063 11.0585C20.1595 11.3127 20.2861 11.6137 20.2861 11.9615C20.2861 12.316 20.1595 12.6204 19.9063 12.8746L13.3995 19.4063C13.1663 19.6538 12.8664 19.7776 12.5 19.7776C12.1401 19.7776 11.837 19.6538 11.5904 19.4063L5.08367 12.8746C4.83713 12.6137 4.71386 12.3094 4.71386 11.9615Z" fill="#3BD564"/>
</svg>
