<svg width="25" height="25" viewBox="0 0 25 25" fill="none" xmlns="http://www.w3.org/2000/svg">
<path d="M0.5 12.3931C0.5 5.76565 5.87258 0.393066 12.5 0.393066C19.1274 0.393066 24.5 5.76565 24.5 12.3931C24.5 19.0205 19.1274 24.3931 12.5 24.3931C5.87258 24.3931 0.5 19.0205 0.5 12.3931Z" fill="#F4595B" fill-opacity="0.45"/>
<path d="M20.2861 12.8246C20.2861 13.1657 20.1629 13.4667 19.9163 13.7276L19.1667 14.4801C18.9135 14.7343 18.6103 14.8614 18.2572 14.8614C17.8973 14.8614 17.5975 14.7343 17.3576 14.4801L14.4191 11.5403L14.4191 18.6039C14.4191 18.9517 14.2941 19.2343 14.0443 19.4517C13.7944 19.6691 13.4929 19.7778 13.1397 19.7778H11.8604C11.5072 19.7778 11.2057 19.6691 10.9558 19.4517C10.7059 19.2343 10.581 18.9517 10.581 18.6039L10.581 11.5403L7.64246 14.4801C7.40258 14.7343 7.10273 14.8614 6.74291 14.8614C6.38309 14.8614 6.08324 14.7343 5.84336 14.4801L5.09374 13.7276C4.84053 13.4734 4.71393 13.1724 4.71393 12.8246C4.71393 12.4701 4.84053 12.1657 5.09374 11.9116L11.6005 5.37978C11.8337 5.13229 12.1336 5.00854 12.5 5.00854C12.8599 5.00854 13.163 5.13229 13.4096 5.37978L19.9163 11.9116C20.1629 12.1724 20.2861 12.4768 20.2861 12.8246Z" fill="#F4595B"/>
</svg>
