<svg width="18" height="16" viewBox="0 0 18 16" fill="none" xmlns="http://www.w3.org/2000/svg">
<path d="M0.565008 7.53261C0.565008 7.16304 0.698553 6.83695 0.965641 6.55435L1.77774 5.73913C2.05204 5.46377 2.38049 5.32609 2.76308 5.32609C3.15288 5.32609 3.47772 5.46377 3.73759 5.73913L6.921 8.92391L6.921 1.27174C6.921 0.894926 7.05635 0.588767 7.32704 0.35326C7.59774 0.117752 7.92438 -1.12946e-06 8.30697 -1.09601e-06L9.69294 -9.74847e-07C10.0755 -9.414e-07 10.4022 0.117753 10.6729 0.35326C10.9436 0.588767 11.0789 0.894927 11.0789 1.27174L11.0789 8.92391L14.2623 5.73913C14.5222 5.46377 14.847 5.32609 15.2368 5.32609C15.6266 5.32609 15.9515 5.46377 16.2114 5.73913L17.0234 6.55435C17.2978 6.82971 17.4349 7.1558 17.4349 7.53261C17.4349 7.91667 17.2978 8.24638 17.0234 8.52174L9.97447 15.5978C9.72182 15.8659 9.39698 16 8.99996 16C8.61015 16 8.2817 15.8659 8.01462 15.5978L0.965641 8.52174C0.698552 8.23913 0.565008 7.90942 0.565008 7.53261Z" fill="#E6E6E6"/>
</svg>
