<svg width="16" height="15" viewBox="0 0 16 15" fill="none" xmlns="http://www.w3.org/2000/svg">
  <path
    fill-rule="evenodd"
    clip-rule="evenodd"
    d="M15.3732 3.635C15.3732 1.76343 13.856 0.246247 11.9845 0.246247C10.5222 0.246247 9.2763 1.17237 8.80127 2.47006C8.27041 2.38586 7.7296 2.38585 7.19874 2.47003C6.72371 1.17234 5.47777 0.246216 4.01555 0.246216C2.14399 0.246216 0.626801 1.7634 0.626801 3.63497C0.626801 5.03331 1.47383 6.23372 2.68277 6.7514C2.17396 7.32006 1.86443 8.07078 1.86443 8.8939C1.86443 10.6692 3.30361 12.1084 5.07893 12.1084C5.19105 12.1084 5.30183 12.1026 5.41102 12.0914C5.96133 13.2765 7.32574 14.2769 8.07402 14.2769C8.82199 14.2769 10.0942 13.2774 10.6058 12.093C10.7096 12.1031 10.8147 12.1084 10.9211 12.1084C12.6964 12.1084 14.1356 10.6692 14.1356 8.89387C14.1356 8.07075 13.8261 7.32003 13.3173 6.75137C14.5262 6.23372 15.3732 5.03334 15.3732 3.635ZM14.2549 3.63499C14.2549 4.88896 13.2383 5.90552 11.9844 5.90552C10.7304 5.90552 9.71384 4.88896 9.71384 3.63499C9.71384 2.38102 10.7304 1.36446 11.9844 1.36446C13.2383 1.36446 14.2549 2.38099 14.2549 3.63499ZM4.0155 1.36446C2.76153 1.36446 1.74496 2.38102 1.74496 3.63499C1.74496 4.88896 2.76153 5.90552 4.0155 5.90552C5.26946 5.90552 6.28603 4.88896 6.28603 3.63499C6.28603 2.38102 5.26946 1.36446 4.0155 1.36446ZM7.07843 12.7166C6.926 12.9016 6.9524 13.1751 7.1374 13.3275L7.42434 13.5639C7.42434 13.5639 7.49737 13.6241 7.6069 13.6743C7.62607 13.6807 7.64636 13.6882 7.66757 13.6962L7.66758 13.6962C7.70697 13.7109 7.74953 13.7268 7.79403 13.738L8.00853 13.7636C8.05581 13.7697 8.10308 13.7619 8.14913 13.7542L8.14916 13.7542C8.17422 13.75 8.19893 13.7459 8.22306 13.7442C8.27032 13.7436 8.31539 13.7236 8.35679 13.7053L8.35681 13.7053C8.37538 13.6971 8.39322 13.6892 8.41018 13.6835C8.51971 13.6354 8.59275 13.5639 8.59275 13.5639L8.89759 13.2654C8.93836 13.2253 8.97033 13.1771 8.99145 13.124C9.01257 13.0708 9.02239 13.0138 9.02028 12.9566C9.01212 12.7287 8.82071 12.5505 8.59275 12.5587C8.59275 12.5587 8.30065 12.5691 8.00853 12.5734L7.42434 12.5587C7.29631 12.5562 7.16618 12.6101 7.07843 12.7166ZM5.68558 8.30441C5.68558 7.88197 5.34312 7.5395 4.92068 7.5395C4.49824 7.5395 4.15577 7.88194 4.15577 8.30441V9.24466C4.15577 9.66709 4.49824 10.0096 4.92068 10.0096C5.34312 10.0096 5.68558 9.66709 5.68558 9.24466V8.30441ZM10.3145 8.30438C10.3145 7.88194 10.657 7.53947 11.0794 7.53947C11.5019 7.53947 11.8443 7.88194 11.8443 8.30438V9.24463C11.8443 9.66706 11.5019 10.0095 11.0794 10.0095C10.657 10.0095 10.3145 9.66706 10.3145 9.24463V8.30438Z"
    fill="#F4595B" />
</svg>
