<svg width="20" height="20" viewBox="0 0 20 20" fill="none" xmlns="http://www.w3.org/2000/svg">
<path d="M8.7 10.5C8.7 10.8 7.4 11.2 6.4 11.2C5.4 11.2 4.3 10.5 4.3 10.3C4.3 10 5 9.1 6.6 9C7.5 8.9 8.5 9.5 8.7 10.5ZM13.4 9C12.4 8.9 11.5 9.5 11.3 10.5C11.3 10.8 12.5 11.2 13.6 11.2C14.7 11.2 15.7 10.5 15.7 10.3C15.7 10.1 15 9.1 13.4 9ZM20 10C20 15.5 15.5 20 10 20C4.5 20 0 15.5 0 10C0 4.5 4.5 0 10 0C15.5 0 20 4.5 20 10ZM18 9.2C18 7.2 17.3 6.5 14.7 6.5C12.1 6.5 11.3 7.6 10 7.6C8.7 7.6 8 6.5 5.3 6.5C2.6 6.5 2 7.1 2 9.2C2 12.6 3.5 14.5 5.6 14.5C7.2 14.5 8.4 12.5 10 12.5C11.6 12.5 12.7 14.5 14.4 14.5C16.5 14.5 18 12.6 18 9.2Z" fill="#F4595B"/>
</svg>
