<svg width="16" height="14" viewBox="0 0 16 14" fill="none" xmlns="http://www.w3.org/2000/svg">
<path d="M11.249 7.00003C11.249 8.79441 9.79438 10.249 8 10.249C6.20561 10.249 4.75097 8.79441 4.75097 7.00003C4.75097 5.20564 6.20561 3.751 8 3.751C9.79438 3.751 11.249 5.20564 11.249 7.00003Z" fill="#E6E6E6"/>
<path d="M7.3 7.46669L6.33333 6.51669C6.21111 6.39447 6.05844 6.33336 5.87533 6.33336C5.69222 6.33336 5.53378 6.40003 5.4 6.53336C5.27778 6.65558 5.21666 6.81114 5.21666 7.00003C5.21666 7.18892 5.27778 7.34447 5.4 7.46669L6.83333 8.90003C6.96666 9.03336 7.12222 9.10003 7.3 9.10003C7.47778 9.10003 7.63333 9.03336 7.76666 8.90003L10.6 6.06669C10.7333 5.93336 10.7971 5.7778 10.7913 5.60003C10.7856 5.42225 10.7218 5.26669 10.6 5.13336C10.4667 5.00003 10.3084 4.93069 10.1253 4.92536C9.94222 4.92003 9.78378 4.9838 9.65 5.11669L7.3 7.46669ZM5.43333 13.5L4.46666 11.8667L2.63333 11.4667C2.46666 11.4334 2.33333 11.3474 2.23333 11.2087C2.13333 11.07 2.09444 10.9171 2.11666 10.75L2.3 8.86669L1.05 7.43336C0.938887 7.31114 0.883331 7.16669 0.883331 7.00003C0.883331 6.83336 0.938887 6.68892 1.05 6.56669L2.3 5.13336L2.11666 3.25003C2.09444 3.08336 2.13333 2.93047 2.23333 2.79136C2.33333 2.65225 2.46666 2.56625 2.63333 2.53336L4.46666 2.13336L5.43333 0.500026C5.52222 0.355582 5.64444 0.258248 5.8 0.208026C5.95555 0.157804 6.11111 0.166248 6.26666 0.23336L8 0.966693L9.73333 0.23336C9.88889 0.166693 10.0444 0.158248 10.2 0.208026C10.3556 0.257804 10.4778 0.355137 10.5667 0.500026L11.5333 2.13336L13.3667 2.53336C13.5333 2.56669 13.6667 2.65292 13.7667 2.79203C13.8667 2.93114 13.9056 3.0838 13.8833 3.25003L13.7 5.13336L14.95 6.56669C15.0611 6.68892 15.1167 6.83336 15.1167 7.00003C15.1167 7.16669 15.0611 7.31114 14.95 7.43336L13.7 8.86669L13.8833 10.75C13.9056 10.9167 13.8667 11.0696 13.7667 11.2087C13.6667 11.3478 13.5333 11.4338 13.3667 11.4667L11.5333 11.8667L10.5667 13.5C10.4778 13.6445 10.3556 13.7418 10.2 13.792C10.0444 13.8422 9.88889 13.8338 9.73333 13.7667L8 13.0334L6.26666 13.7667C6.11111 13.8334 5.95555 13.8418 5.8 13.792C5.64444 13.7422 5.52222 13.6449 5.43333 13.5Z" fill="#5BACF8"/>
</svg>
